<?xml version="1.0" encoding="UTF-8"?>
<!DOCTYPE svg PUBLIC "-//W3C//DTD SVG 1.1//EN" "http://www.w3.org/Graphics/SVG/1.1/DTD/svg11.dtd">
<!-- Creator: CorelDRAW -->
<svg xmlns="http://www.w3.org/2000/svg" xml:space="preserve" width="1.70666in" height="1.70666in" version="1.1" style="shape-rendering:geometricPrecision; text-rendering:geometricPrecision; image-rendering:optimizeQuality; fill-rule:evenodd; clip-rule:evenodd"
viewBox="0 0 1706.66 1706.66"
 xmlns:xlink="http://www.w3.org/1999/xlink"
 xmlns:xodm="http://www.corel.com/coreldraw/odm/2003">
 <defs>
  <style type="text/css">
   <![CDATA[
    .fil4 {fill:#5D8AA0}
    .fil3 {fill:#6496AF}
    .fil1 {fill:#70ABAB}
    .fil0 {fill:#79BBBB}
    .fil6 {fill:#C3285E}
    .fil5 {fill:#D62966}
    .fil2 {fill:#FFAA83}
   ]]>
  </style>
 </defs>
 <g id="Layer_x0020_1">
  <metadata id="CorelCorpID_0Corel-Layer"/>
  <path class="fil0" d="M1517.71 1654.39l-204.12 0c-43.45,0 -78.79,-35.35 -78.79,-78.79l-0 -324.78c0,-19.77 28.74,-20.61 31.2,-2.54l299.33 0c2.46,-18.08 31.2,-17.22 31.2,2.54l0 324.78c-0.01,43.45 -35.36,78.8 -78.81,78.8z"/>
  <polygon class="fil1" points="1431.35,1654.39 1399.97,1654.39 1399.97,1248.28 1431.35,1248.28 "/>
  <path class="fil0" d="M1688.48 1256.55c-184.03,0 -361.63,0 -545.65,0 -8.66,0 -15.69,-7.04 -15.69,-15.69l0 -379.95c0,-95.64 77.81,-173.46 173.46,-173.46l230.09 0c95.65,0 173.46,77.83 173.46,173.46l0 379.94c0,8.65 -7.02,15.69 -15.68,15.69z"/>
  <path class="fil2" d="M1415.66 651.81c-85.68,0 -155.39,-69.7 -155.39,-155.39 0,-85.69 69.7,-155.37 155.39,-155.37 85.69,0 155.38,69.7 155.38,155.38 0,85.69 -69.7,155.38 -155.38,155.38z"/>
  <path class="fil1" d="M1596.53 1256.55l-31.2 0 0 -310.62c0,-8.58 7.02,-15.6 15.6,-15.6l0 0c8.58,0 15.6,7.02 15.6,15.6l0 310.62z"/>
  <path class="fil1" d="M1266.17 1256.55l-31.2 0 0 -310.62c0,-8.58 7.02,-15.6 15.6,-15.6l0 0c8.58,0 15.6,7.02 15.6,15.6l0 310.62z"/>
  <path class="fil3" d="M393.07 1654.39l-204.12 0c-43.45,0 -78.79,-35.35 -78.79,-78.79l-0 -324.78c0,-19.77 28.74,-20.61 31.2,-2.54l299.33 0c2.46,-18.08 31.2,-17.22 31.2,2.54l0 324.78c-0.01,43.45 -35.36,78.8 -78.81,78.8z"/>
  <polygon class="fil4" points="306.71,1654.39 275.33,1654.39 275.33,1248.28 306.71,1248.28 "/>
  <path class="fil3" d="M563.84 1256.55c-184.03,0 -361.63,0 -545.65,0 -8.66,0 -15.69,-7.04 -15.69,-15.69l0 -379.95c0,-95.64 77.81,-173.46 173.46,-173.46l230.09 0c95.65,0 173.46,77.83 173.46,173.46l0 379.94c0,8.65 -7.02,15.69 -15.68,15.69z"/>
  <path class="fil2" d="M291.02 651.81c-85.68,0 -155.39,-69.7 -155.39,-155.39 0,-85.69 69.7,-155.37 155.39,-155.37 85.69,0 155.38,69.7 155.38,155.38 0,85.69 -69.7,155.38 -155.38,155.38z"/>
  <path class="fil4" d="M471.89 1256.55l-31.2 0 0 -310.62c0,-8.58 7.02,-15.6 15.6,-15.6l0 0c8.58,0 15.6,7.02 15.6,15.6l0 310.62z"/>
  <path class="fil4" d="M141.53 1256.55l-31.2 0 0 -310.62c0,-8.58 7.02,-15.6 15.6,-15.6l0 0c8.58,0 15.6,7.02 15.6,15.6l0 310.62z"/>
  <path class="fil5" d="M977.92 1655l-249.19 0c-53.05,0 -96.19,-43.16 -96.19,-96.19l-0 -396.5c0,-24.13 35.09,-25.17 38.09,-3.09l365.43 0c3,-22.07 38.09,-21.02 38.09,3.09l0 396.49c-0.02,53.05 -43.17,96.2 -96.22,96.2z"/>
  <polygon class="fil6" points="872.48,1655 834.19,1655 834.19,1159.22 872.48,1159.22 "/>
  <path class="fil5" d="M1186.39 1169.31c-224.67,0 -441.48,0 -666.13,0 -10.57,0 -19.15,-8.59 -19.15,-19.15l0 -463.85c0,-116.76 94.99,-211.76 211.76,-211.76l280.9 0c116.76,0 211.76,95.01 211.76,211.76l0 463.84c0,10.56 -8.57,19.15 -19.14,19.15z"/>
  <path class="fil2" d="M853.33 431.05c-104.59,0 -189.7,-85.09 -189.7,-189.7 0,-104.61 85.09,-189.68 189.7,-189.68 104.61,0 189.69,85.09 189.69,189.69 0,104.61 -85.09,189.69 -189.69,189.69z"/>
  <path class="fil6" d="M1074.14 1169.31l-38.09 0 0 -379.21c0,-10.47 8.56,-19.04 19.04,-19.04l0.01 0c10.47,0 19.04,8.57 19.04,19.04l0 379.21z"/>
  <path class="fil6" d="M670.83 1169.31l-38.09 0 0 -379.21c0,-10.47 8.56,-19.04 19.04,-19.04l0.01 0c10.47,0 19.04,8.57 19.04,19.04l0 379.21z"/>
 </g>
</svg>
