<?xml version="1.0" standalone="no"?>
<!DOCTYPE svg PUBLIC "-//W3C//DTD SVG 20010904//EN"
 "http://www.w3.org/TR/2001/REC-SVG-20010904/DTD/svg10.dtd">
<svg version="1.0" xmlns="http://www.w3.org/2000/svg"
 width="300.000000pt" height="98.000000pt" viewBox="0 0 300.000000 98.000000"
 preserveAspectRatio="xMidYMid meet">
<metadata>
Created by potrace 1.10, written by Peter Selinger 2001-2011
</metadata>
<g transform="translate(0.000000,98.000000) scale(0.100000,-0.100000)"
fill="#000000" stroke="none">
<path d="M2410 955 c-30 -9 -84 -30 -120 -48 l-65 -32 -3 -189 c-2 -151 1
-201 14 -245 37 -130 137 -274 256 -368 98 -78 109 -82 160 -48 103 68 213
194 273 312 56 110 64 151 71 351 l6 182 -54 24 c-127 56 -186 69 -338 72
-107 3 -160 0 -200 -11z m318 -26 c28 -6 52 -12 52 -14 0 -2 -24 -26 -52 -54
-51 -49 -52 -50 -33 -65 18 -14 10 -15 -94 -16 -101 0 -112 2 -101 15 11 13 8
22 -21 52 -19 20 -43 44 -53 54 -20 16 -20 16 2 23 74 24 190 25 300 5z m-294
-68 l49 -50 -114 -115 -114 -116 -3 135 -3 134 58 30 c32 17 63 30 68 31 6 0
33 -22 59 -49z m469 14 l68 -27 -3 -138 -3 -138 -118 110 c-64 61 -120 115
-123 120 -8 12 87 110 101 104 5 -2 41 -16 78 -31z m-373 -124 c0 -5 -14 -19
-30 -31 -17 -12 -37 -34 -45 -50 -13 -26 -13 -30 6 -54 29 -37 53 -33 108 19
26 25 53 45 60 45 6 0 11 -16 11 -39 0 -35 8 -46 105 -142 75 -73 105 -109
103 -124 -6 -42 -39 -29 -118 50 -43 42 -80 73 -83 68 -4 -6 37 -53 90 -106
82 -82 94 -98 83 -112 -23 -28 -45 -16 -135 75 -49 49 -93 86 -98 81 -4 -4 31
-45 78 -92 47 -46 84 -90 83 -98 -2 -7 -11 -19 -20 -25 -15 -9 -31 3 -107 78
-52 52 -91 84 -95 77 -4 -6 25 -40 64 -77 71 -67 80 -87 48 -108 -15 -9 -39
10 -162 133 -95 95 -142 149 -139 160 2 9 -11 30 -32 51 l-35 34 97 98 c84 84
102 98 130 98 18 0 33 -4 33 -9z m311 -97 l99 -98 -20 -21 c-11 -12 -20 -25
-20 -29 0 -4 -12 -23 -27 -42 l-26 -35 -89 88 c-85 85 -88 89 -88 134 0 25 -2
48 -5 51 -14 14 -70 -11 -115 -50 -42 -36 -53 -42 -65 -32 -23 19 -18 31 35
85 l49 50 87 -1 86 -1 99 -99z m-529 -215 c1 -56 19 -99 42 -99 8 0 17 -11 20
-25 4 -14 16 -27 29 -30 13 -4 27 -16 32 -28 6 -12 20 -26 33 -32 12 -5 22
-15 22 -21 0 -6 8 -18 18 -26 24 -22 137 -22 159 0 9 9 28 15 43 14 20 -2 33
4 47 22 11 14 23 23 26 20 3 -3 15 -1 26 6 12 6 21 8 21 5 0 -13 -116 -128
-170 -170 l-56 -43 -59 44 c-168 125 -272 281 -291 432 l-6 47 31 -31 c28 -27
32 -37 33 -85z m633 35 c-17 -60 -62 -154 -89 -189 -15 -19 -15 -19 -16 8 0
15 10 41 22 58 18 24 20 33 11 48 -10 16 -7 23 18 47 16 15 29 34 29 43 0 16
30 54 38 47 2 -3 -4 -30 -13 -62z m-573 -81 c23 -21 23 -33 -2 -33 -20 0 -44
32 -33 44 9 9 15 8 35 -11z m60 -60 c23 -21 23 -33 -2 -33 -20 0 -44 32 -33
44 9 9 15 8 35 -11z m63 -63 c17 -19 17 -20 0 -26 -19 -8 -49 22 -39 37 8 14
19 11 39 -11z m60 -60 c17 -19 17 -20 0 -26 -19 -8 -49 22 -39 37 8 14 19 11
39 -11z"/>
<path d="M2490 901 c0 -5 43 -11 96 -13 101 -3 147 3 103 15 -37 10 -199 8
-199 -2z"/>
<path d="M2367 833 c-15 -14 -7 -43 12 -43 23 0 34 23 18 39 -13 13 -21 14
-30 4z"/>
<path d="M2281 706 c-13 -13 -18 -26 -13 -30 5 -3 19 5 31 18 13 13 18 26 13
30 -5 3 -19 -5 -31 -18z"/>
<path d="M2290 665 c-38 -41 -34 -62 5 -25 19 18 32 37 29 42 -7 11 -8 11 -34
-17z"/>
<path d="M2803 824 c-3 -8 -1 -20 5 -26 15 -15 43 8 35 28 -7 19 -32 18 -40
-2z"/>
<path d="M2919 657 c39 -42 40 -42 37 -23 -2 18 -27 48 -34 41 -3 -3 -12 1
-21 7 -9 7 0 -5 18 -25z"/>
<path d="M2647 138 l-47 -30 -50 26 c-28 14 -50 24 -50 22 0 -2 23 -21 50 -41
l50 -37 55 42 c30 23 55 44 55 46 0 9 -18 1 -63 -28z"/>
</g>
</svg>
