<svg version="1.0" xmlns="http://www.w3.org/2000/svg" width="176.000000pt" height="220.000000pt" viewBox="0 0 176.000000 220.000000" preserveAspectRatio="xMidYMid meet">
    <defs>
        <g transform="translate(0.000000,220.000000) scale(0.100000,-0.100000)" fill="#000000" stroke="none">
            <path d="M670 2184 c-233 -29 -454 -102 -607 -200 l-53 -34 0 -377 c0 -410 7
            -490 55 -638 76 -231 215 -445 422 -646 162 -159 340 -289 394 -289 68 0 409
            304 544 485 134 179 230 372 289 580 32 109 49 250 29 234 -7 -6 -15 -27 -19
            -46 -8 -41 -29 -53 -49 -27 -20 26 -18 41 4 47 20 5 25 54 36 415 5 154 4 188
            -10 214 -18 37 -14 44 13 29 30 -16 42 -14 42 7 0 19 -23 33 -145 84 -151 64
            -319 115 -480 145 -78 14 -394 26 -465 17z m470 -94 c156 -31 149 -28 114 -59
            -16 -15 -69 -69 -119 -120 l-90 -93 39 -34 39 -34 -261 0 -262 0 41 37 40 36
            -121 122 -122 122 84 17 c151 31 192 34 353 31 112 -2 191 -10 265 -25z m200
            -19 c0 -16 -28 -20 -34 -5 -4 9 1 14 14 14 11 0 20 -4 20 -9z m-843 -133 l113
            -113 -265 -265 c-146 -146 -265 -273 -265 -282 0 -8 -6 -21 -14 -27 -11 -10
            -15 -8 -20 6 -7 24 0 282 8 290 3 4 7 -41 8 -98 1 -57 2 -111 4 -119 1 -8 3
            -19 3 -25 1 -5 7 0 14 11 7 12 53 66 103 120 147 159 158 180 21 39 -143 -147
            -173 -150 -41 -5 139 152 144 161 34 53 -58 -57 -108 -106 -113 -110 -4 -3 -7
            0 -7 8 0 8 15 30 33 50 178 201 183 207 78 100 -55 -58 -104 -102 -108 -98 -6
            7 9 27 91 115 22 23 36 42 31 42 -5 0 -35 -28 -67 -62 -41 -46 -57 -58 -58
            -44 0 10 35 57 77 105 l77 86 -77 -75 c-57 -55 -77 -70 -77 -55 0 11 24 44 52
            75 l53 55 -52 -50 c-52 -48 -53 -49 -53 -23 0 15 6 31 12 35 7 5 29 26 48 48
            35 40 34 39 -13 -5 -37 -35 -47 -40 -47 -25 0 10 12 33 28 49 l27 31 -27 -24
            -28 -24 0 86 0 87 53 33 c70 44 219 114 247 117 3 0 55 -51 117 -112z m973 57
            c47 -18 115 -47 153 -65 l67 -32 -1 -125 -1 -125 -31 28 -32 29 33 -35 c17
            -20 32 -45 32 -55 0 -15 -10 -10 -47 25 l-47 45 47 -57 c76 -91 58 -105 -24
            -18 -45 47 -56 56 -31 25 22 -27 54 -63 71 -79 17 -17 31 -39 31 -50 0 -16
            -19 -2 -82 59 l-82 80 82 -91 c70 -78 95 -114 79 -114 -2 0 -51 46 -108 103
            -102 101 -96 92 34 -52 103 -113 79 -112 -34 2 -98 99 -73 61 50 -73 97 -107
            50 -85 -65 29 l-117 116 121 -134 c67 -73 119 -137 116 -143 -5 -8 -307 277
            -489 461 l-70 71 110 110 c87 87 114 109 130 104 11 -4 58 -21 105 -39z
            m-1402 -75 c-14 -22 -24 -19 -15 5 4 8 11 15 17 15 6 0 6 -7 -2 -20z m652
            -225 c0 -1 -38 -40 -84 -85 -94 -91 -120 -134 -110 -177 16 -65 64 -103 129
            -103 32 0 47 11 139 100 86 84 108 100 134 100 l32 0 0 -93 0 -92 235 -235
            c193 -193 235 -240 235 -262 0 -37 -32 -68 -71 -68 -27 0 -54 22 -200 166
            -117 116 -173 165 -183 161 -9 -4 -16 -12 -16 -19 0 -7 92 -103 205 -213 143
            -139 205 -207 205 -222 0 -33 -41 -76 -74 -76 -23 1 -64 36 -231 203 -145 145
            -208 201 -219 197 -9 -4 -16 -13 -16 -22 0 -8 83 -97 185 -198 129 -127 185
            -189 185 -204 0 -33 -41 -75 -74 -75 -23 -1 -61 32 -211 182 -176 175 -210
            201 -222 164 -2 -7 66 -81 152 -165 103 -103 155 -161 155 -175 0 -36 -38 -74
            -73 -74 -28 0 -67 35 -344 312 l-313 313 0 50 c0 49 -2 52 -70 120 l-70 70
            210 210 210 210 85 1 c47 1 85 0 85 -1z m676 -226 l225 -223 -46 -46 c-33 -33
            -45 -54 -45 -75 0 -23 -15 -45 -62 -93 l-61 -63 -199 198 -198 198 0 107 0
            108 -67 0 -67 0 -101 -100 c-67 -66 -110 -100 -124 -100 -57 0 -91 51 -67 99
            8 15 59 70 113 122 l99 94 188 -1 188 -2 224 -223z m-1176 -413 c0 -32 6 -56
            17 -68 16 -18 16 -21 0 -47 -40 -68 1 -159 80 -176 26 -5 34 -13 45 -48 14
            -46 64 -87 104 -87 18 0 24 -6 24 -22 0 -53 45 -98 113 -112 19 -5 27 -13 27
            -27 0 -35 28 -76 64 -93 44 -21 74 -20 111 2 29 18 31 18 60 0 59 -35 139 -11
            166 51 13 29 15 29 36 16 12 -8 41 -15 65 -15 34 0 48 6 75 32 18 18 33 40 33
            49 0 14 9 17 44 17 46 -1 73 13 104 53 30 38 34 71 14 111 l-18 35 27 10 c61
            23 89 125 49 175 l-19 25 69 66 c59 56 70 72 70 100 0 25 9 42 40 72 22 21 42
            37 44 34 3 -2 -2 -35 -10 -72 -74 -357 -335 -731 -693 -998 l-81 -61 -37 23
            c-62 37 -172 122 -263 202 -191 168 -341 375 -423 582 -36 91 -77 265 -77 326
            l0 33 70 -69 c68 -67 70 -71 70 -119z m134 -175 l49 -50 -27 -12 c-57 -26
            -122 33 -97 87 6 13 14 24 19 24 4 0 30 -22 56 -49z m169 -192 c-21 -21 -74
            -15 -95 10 -21 26 -24 71 -6 89 10 10 23 2 62 -38 39 -38 48 -52 39 -61z m95
            -72 c49 -50 52 -64 16 -73 -56 -14 -109 41 -86 91 6 14 15 25 20 25 4 0 27
            -19 50 -43z m135 -135 c42 -43 46 -50 32 -62 -33 -27 -88 -9 -105 35 -7 20 6
            75 19 75 4 0 28 -22 54 -48z m147 -441 c0 -19 -22 -23 -38 -7 -15 15 -14 16
            11 16 15 0 27 -4 27 -9z"/>
            <path d="M627 2045 c-43 -7 -86 -17 -95 -21 -28 -12 28 -22 63 -11 50 15 342 20 425 7 133 -20 170 -23 170 -12 0 24 -211 53 -375 51 -60 -1 -145 -7 -188 -14z"/>
            <path d="M336 1858 c-9 -12 -16 -28 -16 -35 0 -18 37 -53 55 -53 19 0 55 36 55 55 0 21 -36 55 -59 55 -11 0 -27 -10 -35 -22z m52 -30 c-6 -18 -28 -21 -28 -4 0 9 7 16 16 16 9 0 14 -5 12 -12z"/>
            <path d="M1321 1866 c-17 -20 -10 -67 11 -80 28 -17 72 4 76 37 4 36 -13 57 -48 57 -15 0 -33 -6 -39 -14z"/>
            <path d="M160 1119 c0 -27 43 -178 50 -174 4 2 -3 43 -15 90 -22 82 -35 114 -35 84z"/>
            <path d="M1506 956 c-9 -19 -16 -42 -15 -53 0 -10 9 4 20 31 23 56 19 73 -5 22z"/>
            <path d="M317 709 c78 -132 253 -322 407 -441 144 -111 132 -109 226 -38 93 71 203 171 196 178 -6 5 -39 -15 -74 -46 -26 -23 -76 -63 -142 -116 -25 -20 -54 -36 -65 -35 -20 0 -67 31 -176 116 -89 68 -292 286 -349 374 -30 46 -49 53 -23 8z"/>
        </g>
    </defs>
</svg>
